<svg width="547" height="89" viewBox="0 0 547 89" fill="none" xmlns="http://www.w3.org/2000/svg">
<mask id="mask0_193_4609" style="mask-type:alpha" maskUnits="userSpaceOnUse" x="0" y="0" width="547" height="90">
<rect width="547" height="90" fill="#C4C4C4"/>
</mask>
<g mask="url(#mask0_193_4609)">
<path d="M40.9045 29.4308H25.3182C23.4132 29.4308 21.8545 30.9895 21.8545 32.8945V60.6035C21.8545 62.5085 23.4132 64.0671 25.3182 64.0671H46.0999C48.0049 64.0671 49.5635 62.5085 49.5635 60.6035V38.0899L40.9045 29.4308ZM25.3182 60.6035V32.8945H39.1727V39.8217H46.0999V60.6035H25.3182ZM42.6363 43.2853V51.9444C42.6363 55.7717 39.5363 58.8717 35.709 58.8717C31.8817 58.8717 28.7818 55.7717 28.7818 51.9444V40.6876C28.7818 38.1419 30.9639 36.1156 33.5616 36.3754C35.8129 36.6005 37.4409 38.6614 37.4409 40.9301V51.9444H33.9772V40.6876C33.9772 40.2027 33.5962 39.8217 33.1113 39.8217C32.6264 39.8217 32.2454 40.2027 32.2454 40.6876V51.9444C32.2454 53.8494 33.804 55.408 35.709 55.408C37.614 55.408 39.1727 53.8494 39.1727 51.9444V43.2853H42.6363Z" fill="#161616"/>
<path fill-rule="evenodd" clip-rule="evenodd" d="M35.4616 21.0191C49.8084 21.0191 61.4388 32.6495 61.4388 46.9963C61.4388 61.3431 49.8084 72.9735 35.4616 72.9735C21.1148 72.9735 9.48441 61.3431 9.48441 46.9963C9.48441 32.6495 21.1148 21.0191 35.4616 21.0191ZM35.4616 19.5347C50.6282 19.5347 62.9232 31.8296 62.9232 46.9963C62.9232 62.1629 50.6282 74.4579 35.4616 74.4579C20.295 74.4579 8 62.1629 8 46.9963C8 31.8296 20.295 19.5347 35.4616 19.5347Z" fill="#161616"/>
<path fill-rule="evenodd" clip-rule="evenodd" d="M168.716 101.573L61.2826 55.3819L60.6767 56.7911L168.111 102.982L168.716 101.573Z" fill="#1c1c1c" fill-opacity="0.56"/>
<path fill-rule="evenodd" clip-rule="evenodd" d="M406.512 97.9384L263.284 79.3619L263.086 80.883L406.315 99.4594L406.512 97.9384Z" fill="#1c1c1c" fill-opacity="0.66"/>
<path fill-rule="evenodd" clip-rule="evenodd" d="M464.036 40.283L440.517 80.674L441.842 81.4458L465.361 41.0549L464.036 40.283Z" fill="#1c1c1c" fill-opacity="0.66"/>
<path fill-rule="evenodd" clip-rule="evenodd" d="M491.985 32.7357L519.083 63.9236L520.24 62.9177L493.143 31.7297L491.985 32.7357Z" fill="#1c1c1c" fill-opacity="0.66"/>
<path fill-rule="evenodd" clip-rule="evenodd" d="M449.236 98.9434L505.732 89.2291L505.472 87.7174L448.976 97.4317L449.236 98.9434Z" fill="#1c1c1c" fill-opacity="0.66"/>
<path fill-rule="evenodd" clip-rule="evenodd" d="M298.313 34.1636L168.453 27.3767L168.373 28.9084L298.233 35.6954L298.313 34.1636Z" fill="#1c1c1c" fill-opacity="0.56"/>
<path fill-rule="evenodd" clip-rule="evenodd" d="M364.576 63.1387L407.523 91.6685L408.371 90.3908L365.425 61.8611L364.576 63.1387ZM300.276 56.2666L260.985 68.3115L261.435 69.778L300.725 57.7331L300.276 56.2666Z" fill="#1c1c1c" fill-opacity="0.56"/>
<path fill-rule="evenodd" clip-rule="evenodd" d="M219.414 73.1457L62.339 46.7056L62.0844 48.2182L219.159 74.6583L219.414 73.1457Z" fill="#1c1c1c" fill-opacity="0.56"/>
<path fill-rule="evenodd" clip-rule="evenodd" d="M219.903 80.1995L69.1711 90.776L69.2785 92.3061L220.01 81.7296L219.903 80.1995Z" fill="#1c1c1c" fill-opacity="0.56"/>
<path fill-rule="evenodd" clip-rule="evenodd" d="M132.148 30.6099L66.1929 83.0158L67.1471 84.2167L133.102 31.8108L132.148 30.6099Z" fill="#1c1c1c" fill-opacity="0.56"/>
<path fill-rule="evenodd" clip-rule="evenodd" d="M178.843 91.7759L160.182 43.4601L158.751 44.0128L177.412 92.3285L178.843 91.7759Z" fill="#1c1c1c" fill-opacity="0.56"/>
<path fill-rule="evenodd" clip-rule="evenodd" d="M200.113 106.879H406.413V105.346H200.113V106.879Z" fill="#1c1c1c" fill-opacity="0.56"/>
<path fill-rule="evenodd" clip-rule="evenodd" d="M368.159 34.849L452.264 24.8139L452.082 23.2909L367.977 33.3259L368.159 34.849Z" fill="#1c1c1c" fill-opacity="0.56"/>
<path d="M61.2431 94.0398V90.4411C61.2431 88.2315 60.0628 86.3817 58.0043 85.8923V85.4029C58.0043 84.8055 57.522 84.3232 56.9247 84.3232C56.3273 84.3232 55.845 84.8055 55.845 85.4029V85.8923C53.7794 86.3817 52.6062 88.2243 52.6062 90.4411V94.0398L51.1667 95.4793V96.1991H62.6826V95.4793L61.2431 94.0398ZM57.6444 94.0398H56.2049V92.6003H57.6444V94.0398ZM57.6444 91.1608H56.2049V88.2818H57.6444V91.1608ZM56.9247 98.3583C57.7164 98.3583 58.3642 97.7105 58.3642 96.9188H55.4852C55.4852 97.7105 56.1257 98.3583 56.9247 98.3583Z" fill="#161616"/>
<path fill-rule="evenodd" clip-rule="evenodd" d="M56.4997 79.923C62.8055 79.923 67.9174 85.0349 67.9174 91.3408C67.9174 97.6466 62.8055 102.758 56.4997 102.758C50.1938 102.758 45.082 97.6466 45.082 91.3408C45.082 85.0349 50.1938 79.923 56.4997 79.923ZM56.4997 79.2706C63.1658 79.2706 68.5698 84.6746 68.5698 91.3408C68.5698 98.0069 63.1658 103.411 56.4997 103.411C49.8335 103.411 44.4295 98.0069 44.4295 91.3408C44.4295 84.6746 49.8335 79.2706 56.4997 79.2706Z" fill="#161616"/>
<path d="M157.631 26.7595V19.7981H151.54V22.4086H146.319V19.7981H140.228V26.7595H146.319V24.149H148.059V32.8507H151.54V35.4612H157.631V28.4998H151.54V31.1104H149.8V24.149H151.54V26.7595H157.631Z" fill="#161616"/>
<path fill-rule="evenodd" clip-rule="evenodd" d="M150.053 11.7154C159.292 11.7154 166.781 19.2049 166.781 28.4437C166.781 37.6825 159.292 45.172 150.053 45.172C140.814 45.172 133.324 37.6825 133.324 28.4437C133.324 19.2049 140.814 11.7154 150.053 11.7154ZM150.053 10.7595C159.819 10.7595 167.737 18.677 167.737 28.4437C167.737 38.2104 159.819 46.1279 150.053 46.1279C140.286 46.1279 132.369 38.2104 132.369 28.4437C132.369 18.677 140.286 10.7595 150.053 10.7595Z" fill="#161616"/>
<path d="M189.977 98.8895H177.315C176.32 98.8895 175.506 99.7035 175.506 100.698V113.361C175.506 114.356 176.32 115.17 177.315 115.17H189.977C190.972 115.17 191.786 114.356 191.786 113.361V100.698C191.786 99.7035 190.972 98.8895 189.977 98.8895ZM185.455 111.552H179.124V109.743H185.455V111.552ZM188.168 107.934H179.124V106.125H188.168V107.934ZM188.168 104.316H179.124V102.507H188.168V104.316Z" fill="#161616"/>
<path fill-rule="evenodd" clip-rule="evenodd" d="M183.646 91.8947C192.005 91.8947 198.782 98.671 198.782 107.03C198.782 115.389 192.005 122.165 183.646 122.165C175.287 122.165 168.511 115.389 168.511 107.03C168.511 98.671 175.287 91.8947 183.646 91.8947ZM183.646 91.0299C192.483 91.0299 199.646 98.1933 199.646 107.03C199.646 115.866 192.483 123.03 183.646 123.03C174.81 123.03 167.646 115.866 167.646 107.03C167.646 98.1933 174.81 91.0299 183.646 91.0299Z" fill="#161616"/>
<path d="M244.869 65.3858H233.922C232.417 65.3858 231.199 66.6174 231.199 68.1227L231.185 90.0174C231.185 91.5226 232.403 92.7542 233.908 92.7542H250.343C251.848 92.7542 253.08 91.5226 253.08 90.0174V73.5964L244.869 65.3858ZM247.606 87.2805H236.659V84.5437H247.606V87.2805ZM247.606 81.8069H236.659V79.07H247.606V81.8069ZM243.501 74.9648V67.4385L251.027 74.9648H243.501Z" fill="#161616"/>
<path fill-rule="evenodd" clip-rule="evenodd" d="M241.291 57.4465C252.729 57.4465 262.002 66.7193 262.002 78.1577C262.002 89.5962 252.729 98.869 241.291 98.869C229.852 98.869 220.58 89.5962 220.58 78.1577C220.58 66.7193 229.852 57.4465 241.291 57.4465ZM241.291 56.263C253.383 56.263 263.186 66.0656 263.186 78.1577C263.186 90.2499 253.383 100.052 241.291 100.052C229.199 100.052 219.396 90.2499 219.396 78.1577C219.396 66.0656 229.199 56.263 241.291 56.263Z" fill="#161616"/>
<path d="M343.761 20.9665H317.523C315.118 20.9665 313.15 22.9344 313.15 25.3396V55.9508H317.523V25.3396H343.761V20.9665ZM341.575 29.7126L354.694 42.8317V64.6969C354.694 67.102 352.726 69.0699 350.321 69.0699H326.247C323.842 69.0699 321.896 67.102 321.896 64.6969L321.918 34.0856C321.918 31.6805 323.864 29.7126 326.269 29.7126H341.575ZM339.388 45.0182H351.414L339.388 32.9924V45.0182Z" fill="#161616"/>
<path fill-rule="evenodd" clip-rule="evenodd" d="M333.922 10.942C352.693 10.942 367.91 26.1588 367.91 44.9296C367.91 63.7005 352.693 78.9173 333.922 78.9173C315.151 78.9173 299.934 63.7005 299.934 44.9296C299.934 26.1588 315.151 10.942 333.922 10.942ZM333.922 8.99986C353.765 8.99986 369.852 25.0862 369.852 44.9296C369.852 64.7731 353.765 80.8594 333.922 80.8594C314.078 80.8594 297.992 64.7731 297.992 44.9296C297.992 25.0862 314.078 8.99986 333.922 8.99986Z" fill="#161616"/>
<path d="M481.039 21.7369C481.373 21.7369 481.697 21.7664 482.022 21.8057L482.031 10.4387L462.382 30.0878H473.74C473.7 29.7636 473.671 29.4394 473.671 29.1053C473.671 25.038 476.972 21.7369 481.039 21.7369ZM484.684 29.5867C484.704 29.4295 484.723 29.2723 484.723 29.1053C484.723 28.9383 484.714 28.7811 484.684 28.6239L485.725 27.8085C485.814 27.7299 485.843 27.6022 485.784 27.4941L484.802 25.7945C484.743 25.6864 484.615 25.6471 484.497 25.6864L483.279 26.1776C483.024 25.9811 482.749 25.8141 482.444 25.6962L482.257 24.3994C482.248 24.2815 482.14 24.1931 482.022 24.1931H480.057C479.939 24.1931 479.831 24.2815 479.811 24.3994L479.624 25.6962C479.33 25.8239 479.045 25.9811 478.789 26.1776L477.571 25.6864C477.463 25.6471 477.335 25.6864 477.267 25.7945L476.284 27.4941C476.225 27.6022 476.245 27.7299 476.343 27.8085L477.384 28.6239C477.365 28.7811 477.355 28.9383 477.355 29.1053C477.355 29.2723 477.365 29.4295 477.384 29.5867L476.343 30.4022C476.255 30.4808 476.225 30.6085 476.284 30.7166L477.267 32.4162C477.325 32.5243 477.453 32.5636 477.571 32.5243L478.789 32.033C479.045 32.2295 479.32 32.3965 479.624 32.5144L479.811 33.8113C479.831 33.9292 479.929 34.0176 480.057 34.0176H482.022C482.14 34.0176 482.248 33.9292 482.267 33.8113L482.454 32.5144C482.749 32.3867 483.034 32.2295 483.279 32.033L484.507 32.5243C484.615 32.5636 484.743 32.5243 484.812 32.4162L485.794 30.7166C485.853 30.6085 485.824 30.4808 485.735 30.4022L484.684 29.5867ZM481.039 30.579C480.224 30.579 479.565 29.9208 479.565 29.1053C479.565 28.2899 480.224 27.6316 481.039 27.6316C481.855 27.6316 482.513 28.2899 482.513 29.1053C482.513 29.9208 481.855 30.579 481.039 30.579Z" fill="#161616"/>
<path fill-rule="evenodd" clip-rule="evenodd" d="M474.172 3.67156C484.731 3.67156 493.29 12.231 493.29 22.7896C493.29 33.3482 484.731 41.9076 474.172 41.9076C463.613 41.9076 455.054 33.3482 455.054 22.7896C455.054 12.231 463.613 3.67156 474.172 3.67156ZM474.172 2.5791C485.334 2.5791 494.382 11.6277 494.382 22.7896C494.382 33.9516 485.334 43.0001 474.172 43.0001C463.01 43.0001 453.961 33.9516 453.961 22.7896C453.961 11.6277 463.01 2.5791 474.172 2.5791Z" fill="#161616"/>
<path fill-rule="evenodd" clip-rule="evenodd" d="M428.308 78.4089C439.747 78.4089 449.02 87.6816 449.02 99.1201C449.02 110.559 439.747 119.831 428.308 119.831C416.87 119.831 407.597 110.559 407.597 99.1201C407.597 87.6816 416.87 78.4089 428.308 78.4089ZM428.308 77.2254C440.4 77.2254 450.203 87.028 450.203 99.1201C450.203 111.212 440.4 121.015 428.308 121.015C416.216 121.015 406.414 111.212 406.414 99.1201C406.414 87.028 416.216 77.2254 428.308 77.2254Z" fill="#161616"/>
<path d="M437.477 87.3305H419.125C417.684 87.3305 416.518 88.5094 416.518 89.9504L416.531 108.29C416.531 109.73 417.697 110.909 419.138 110.909H432.238L440.097 103.05V89.9504C440.097 88.5094 438.918 87.3305 437.477 87.3305ZM421.758 93.8802H434.858V96.5001H421.758V93.8802ZM428.308 101.74H421.758V99.1199H428.308V101.74ZM430.928 108.944V101.74H438.132L430.928 108.944Z" fill="#161616"/>
<path fill-rule="evenodd" clip-rule="evenodd" d="M524.79 63.4908C535.348 63.4908 543.908 72.0502 543.908 82.6088C543.908 93.1675 535.348 101.727 524.79 101.727C514.231 101.727 505.672 93.1675 505.672 82.6088C505.672 72.0502 514.231 63.4908 524.79 63.4908ZM524.79 62.3983C535.952 62.3983 545 71.4469 545 82.6088C545 93.7708 535.952 102.819 524.79 102.819C513.628 102.819 504.579 93.7708 504.579 82.6088C504.579 71.4469 513.628 62.3983 524.79 62.3983Z" fill="#161616"/>
<path d="M534.39 70.8194H516.874C515.67 70.8194 514.695 71.8047 514.695 73.0089L514.684 92.7141L519.063 88.3352H534.39C535.594 88.3352 536.579 87.3499 536.579 86.1457V73.0089C536.579 71.8047 535.594 70.8194 534.39 70.8194ZM532.2 83.9562H519.063V81.7668H532.2V83.9562ZM532.2 80.672H519.063V78.4826H532.2V80.672ZM532.2 77.3878H519.063V75.1983H532.2V77.3878Z" fill="#161616"/>
</g>
</svg>
