<?xml version="1.0" standalone="no"?>
<!DOCTYPE svg PUBLIC "-//W3C//DTD SVG 20010904//EN"
 "http://www.w3.org/TR/2001/REC-SVG-20010904/DTD/svg10.dtd">
<svg version="1.0" xmlns="http://www.w3.org/2000/svg"
 width="1328.000000pt" height="1328.000000pt" viewBox="0 0 1328.000000 1328.000000"
 preserveAspectRatio="xMidYMid meet">
<metadata>
Created by potrace 1.14, written by Peter Selinger 2001-2017
</metadata>
<g transform="translate(0.000000,1328.000000) scale(0.100000,-0.100000)"
fill="#000000" stroke="none">
<path d="M0 6635 l0 -3285 3358 2 3357 1 3280 3284 3280 3283 -6638 0 -6637 0
0 -3285z m1980 2115 c376 -27 737 -107 1065 -237 117 -46 230 -97 243 -108 2
-2 -98 -181 -223 -398 l-227 -395 -76 35 c-348 159 -624 223 -957 223 -285 0
-488 -98 -510 -245 -19 -121 127 -252 413 -373 64 -27 226 -86 360 -131 133
-44 295 -102 359 -127 504 -199 783 -457 877 -812 l23 -86 17 44 c9 25 227
608 485 1295 l468 1250 569 0 569 0 562 -1530 c309 -841 564 -1534 567 -1540
2 -5 5 685 5 1533 l1 1544 818 -5 c846 -5 896 -7 1147 -51 681 -119 1061 -462
1159 -1046 34 -207 31 -460 -10 -657 -106 -517 -490 -877 -1068 -1002 -178
-39 -332 -51 -648 -51 l-298 0 0 -630 0 -630 -968 0 -968 0 -96 298 c-82 255
-98 297 -114 296 -10 -1 -64 -13 -119 -27 -195 -51 -282 -61 -540 -61 -267 -1
-358 10 -578 68 l-125 33 -99 -301 -99 -301 -592 -3 c-326 -1 -592 -1 -592 1
0 2 24 69 54 148 29 79 57 154 61 167 5 19 -9 11 -79 -40 -235 -173 -513 -282
-823 -323 -149 -20 -478 -20 -648 0 -250 29 -505 90 -730 175 -105 39 -355
155 -402 186 l-23 14 200 401 201 400 42 -24 c248 -144 452 -223 677 -264 136
-24 468 -24 564 0 100 25 149 50 205 102 63 59 95 130 95 210 0 165 -124 248
-594 401 -318 103 -504 175 -665 257 -422 215 -643 471 -711 826 -20 103 -23
336 -5 431 72 384 311 684 696 870 324 157 674 219 1085 190z"/>
<path d="M7670 7305 l0 -525 203 0 c293 0 440 28 564 109 143 92 207 225 206
426 -2 211 -83 347 -258 431 -131 63 -267 84 -542 84 l-173 0 0 -525z"/>
<path d="M4852 7380 c-5 -14 -99 -305 -208 -648 -130 -409 -194 -626 -188
-632 6 -6 55 -22 110 -37 90 -25 115 -27 289 -27 168 -1 201 2 288 23 53 13
103 29 111 35 12 9 -19 118 -185 651 -110 352 -201 645 -203 650 -2 6 -8 -1
-14 -15z"/>
<path d="M8530 4182 c-154 -51 -265 -182 -292 -344 -20 -125 21 -256 111 -351
210 -222 562 -165 695 113 29 61 31 73 31 175 0 103 -2 114 -32 177 -44 93
-109 160 -201 205 -67 33 -84 37 -166 40 -68 2 -105 -2 -146 -15z m257 -94
c42 -15 75 -38 120 -83 53 -53 64 -71 83 -134 53 -172 -25 -344 -189 -419 -70
-33 -178 -36 -259 -9 -70 25 -153 101 -189 175 -25 50 -28 68 -28 152 0 84 3
101 27 146 49 93 109 145 206 180 58 21 163 17 229 -8z"/>
<path d="M8500 3775 l0 -245 35 0 35 0 0 106 0 105 47 -3 48 -3 61 -100 c61
-100 61 -100 104 -103 43 -3 43 -3 28 20 -88 138 -120 189 -117 192 2 1 18 8
36 15 52 21 76 54 80 113 3 41 -1 61 -17 86 -31 51 -71 62 -215 62 l-125 0 0
-245z m260 160 c26 -24 26 -79 0 -105 -17 -17 -33 -20 -105 -20 l-85 0 0 68
c0 38 3 72 8 76 4 5 42 6 84 4 57 -3 83 -10 98 -23z"/>
</g>
</svg>
