<svg width="36" height="36" viewBox="0 0 36 36" fill="none" xmlns="http://www.w3.org/2000/svg">
<path d="M1.11032 0C0.497108 0 0 0.497108 0 1.11032V34.42C0 35.0332 0.497108 35.5303 1.11032 35.5303H6.11161C4.89295 34.0097 4.16403 32.0797 4.16403 29.9794C4.16403 25.4488 7.55602 21.7104 11.939 21.1652C12.4901 16.4377 16.5086 12.7688 21.3841 12.7688C24.7536 12.7688 27.7138 14.5213 29.403 17.1645C30.0684 17.0263 30.7578 16.9536 31.4642 16.9536C32.911 16.9536 34.2866 17.2584 35.5303 17.8073V1.11032C35.5303 0.497108 35.0332 0 34.42 0H1.11032Z" fill="#F0AB00"/>
<path d="M35.5303 20.3065C34.344 19.5879 32.9524 19.1743 31.4642 19.1743C30.9105 19.1743 30.3724 19.2312 29.8547 19.3387L28.356 19.6502L27.5318 18.3603C26.2334 16.3286 23.9644 14.9894 21.3841 14.9894C17.6487 14.9894 14.5669 17.8012 14.1447 21.4224L13.9429 23.1538L12.2131 23.3689C8.92814 23.7775 6.38467 26.5831 6.38467 29.9794C6.38467 32.2947 7.56683 34.3362 9.36073 35.5303H34.42C35.0332 35.5303 35.5303 35.0332 35.5303 34.42V20.3065Z" fill="#F0AB00"/>
</svg>
