<svg width="37" height="36" viewBox="0 0 37 36" fill="none" xmlns="http://www.w3.org/2000/svg">
<g clip-path="url(#clip0_608_8517)">
<path d="M8.76959 22.5366C8.76959 24.3241 7.30943 25.7842 5.522 25.7842C3.73457 25.7842 2.27441 24.3241 2.27441 22.5366C2.27441 20.7492 3.73457 19.2891 5.522 19.2891H8.76959V22.5366Z" fill="#DEDFE0"/>
<path d="M10.4062 22.5366C10.4062 20.7492 11.8664 19.2891 13.6538 19.2891C15.4413 19.2891 16.9014 20.7492 16.9014 22.5366V30.6682C16.9014 32.4556 15.4413 33.9158 13.6538 33.9158C11.8664 33.9158 10.4062 32.4556 10.4062 30.6682V22.5366Z" fill="#DEDFE0"/>
<path d="M13.6538 9.49517C11.8664 9.49517 10.4062 8.03502 10.4062 6.24759C10.4062 4.46016 11.8664 3 13.6538 3C15.4413 3 16.9014 4.46016 16.9014 6.24759V9.49517H13.6538Z" fill="#DEDFE0"/>
<path d="M13.6536 11.1309C15.441 11.1309 16.9011 12.591 16.9011 14.3784C16.9011 16.1659 15.441 17.626 13.6536 17.626H5.522C3.73457 17.626 2.27441 16.1659 2.27441 14.3784C2.27441 12.591 3.73457 11.1309 5.522 11.1309H13.6536Z" fill="#DEDFE0"/>
<path d="M26.6943 14.3784C26.6943 12.591 28.1545 11.1309 29.9419 11.1309C31.7294 11.1309 33.1895 12.591 33.1895 14.3784C33.1895 16.1659 31.7294 17.626 29.9419 17.626H26.6943V14.3784Z" fill="#DEDFE0"/>
<path d="M25.0577 14.3791C25.0577 16.1666 23.5975 17.6267 21.8101 17.6267C20.0227 17.6267 18.5625 16.1666 18.5625 14.3791V6.24759C18.5625 4.46016 20.0227 3 21.8101 3C23.5975 3 25.0577 4.46016 25.0577 6.24759V14.3791Z" fill="#DEDFE0"/>
<path d="M21.8101 27.4199C23.5975 27.4199 25.0577 28.8801 25.0577 30.6675C25.0577 32.4549 23.5975 33.9151 21.8101 33.9151C20.0227 33.9151 18.5625 32.4549 18.5625 30.6675V27.4199H21.8101Z" fill="#DEDFE0"/>
<path d="M21.8101 25.7842C20.0227 25.7842 18.5625 24.3241 18.5625 22.5366C18.5625 20.7492 20.0227 19.2891 21.8101 19.2891H29.9416C31.7291 19.2891 33.1892 20.7492 33.1892 22.5366C33.1892 24.3241 31.7291 25.7842 29.9416 25.7842H21.8101Z" fill="#DEDFE0"/>
</g>
<defs>
<clipPath id="clip0_608_8517">
<rect width="36" height="36" fill="white" transform="translate(0.189453)"/>
</clipPath>
</defs>
</svg>
