<svg xmlns="http://www.w3.org/2000/svg" width="39" height="38" fill="none" viewBox="0 0 39 38">
  <path fill="#14B8C5" d="m19.5 29.387 18.873-9.88v8.613L19.5 38v-8.613Z"/>
  <path fill="#0AC7D7" d="M19.5 29.387.627 19.507v1.266l1.14.634v5.446l-1.14.507v.76L19.5 38v-8.613Z"/>
  <path fill="#EFEFEF" d="m17.853 29.956-16.086-8.55v6.018l16.086 8.55v-6.018Z"/>
  <path fill="#DEDEDE" d="m17.853 29.956-16.086-8.55v.952l16.086 8.549v-.951Z"/>
  <path fill="#00AAB7" d="M19.5 29.387.627 19.507 19.5 9.753v19.634Zm0 0 18.873-9.88L19.5 9.753v19.634Z"/>
  <path fill="#0AC7D7" d="M19.5 19.633.627 9.753v8.614l18.873 9.88v-8.614Z"/>
  <path fill="#14B8C6" d="m19.5 19.633 18.873-9.88v1.267l-1.14.633V17.1l1.14.507v.76L19.5 28.247v-8.614Z"/>
  <path fill="#E2E2E2" d="m21.147 20.203 16.086-8.55v6.018L21.147 26.22v-6.017Z"/>
  <path fill="#B4B4B4" d="m21.147 20.203 16.086-8.55v.951l-16.086 8.55v-.951Z"/>
  <path fill="#15D0E0" d="m19.5 19.633 18.873-9.88L19.5 0v19.633Zm0 0L.627 9.753 19.5 0v19.633Z"/>
</svg>
