<svg xmlns="http://www.w3.org/2000/svg" xmlns:xlink="http://www.w3.org/1999/xlink" viewBox="0 0 331.84 164.18"><defs><style>.cls-1,.cls-2{fill-rule:evenodd;}.cls-1{fill:url(#linear-gradient);}.cls-2{fill:#fff;}.cls-3{fill:#225fbc;}</style><linearGradient id="linear-gradient" x1="165.92" y1="164.39" x2="165.92" y2="0.23" gradientUnits="userSpaceOnUse"><stop offset="0" stop-color="#225fbc"/><stop offset="1" stop-color="#1fb2f0"/></linearGradient></defs><g id="Layer_2" data-name="Layer 2"><g id="Layer_1-2" data-name="Layer 1"><polyline class="cls-1" points="0 164.15 167.7 164.15 331.84 0 0 0 0 164.15"/><path class="cls-2" d="M196.93,30.86H164.27v77.66L135.73,30.85H107.44L83.07,95.79c-2.58-16.37-19.52-22-32.85-26.27-8.82-2.82-18.13-7-18-11.58.06-3.77,5-7.27,14.78-6.74,6.57.35,12.38.87,23.89,6.44L82.22,37.88a88.47,88.47,0,0,0-37-8.76h-.08c-13.9,0-25.49,4.52-32.66,11.93A27.61,27.61,0,0,0,4.65,60.1c-.18,10,3.49,17.13,11.23,22.81,6.5,4.78,14.85,7.88,22.2,10.17,9.06,2.8,16.46,5.24,16.37,10.45a7.52,7.52,0,0,1-2.13,5.09c-2.27,2.34-5.74,3.22-10.53,3.31-9.27.19-16.13-1.26-27-7.72l-10.09,20a75.5,75.5,0,0,0,37,9.83h1.7c11.47-.2,20.72-3.49,28.12-9.43.4-.33.8-.68,1.19-1l-3.27,8.76H99l5-15.15a56.54,56.54,0,0,0,34.46.14l4.8,15h48.38V101h10.56c25.5,0,40.61-13,40.61-34.76C242.82,42,228.15,30.86,196.93,30.86ZM121.44,97.33A29.74,29.74,0,0,1,111,95.48l10.36-32.66h.21l10.15,32.75A30.05,30.05,0,0,1,121.44,97.33Zm77.41-18.78h-7.2V52.22h7.2c9.6,0,17.24,3.19,17.24,13,0,10.13-7.64,13.32-17.24,13.32"/><path class="cls-3" d="M207.84,153.51a8.64,8.64,0,1,1,8.67,8.89A8.62,8.62,0,0,1,207.84,153.51Zm8.67,10.67a10.65,10.65,0,1,0-10.81-10.67A10.64,10.64,0,0,0,216.51,164.18Zm-2.26-9.83h2.14l3.23,5.31h2.09l-3.5-5.4c1.8-.21,3.19-1.18,3.19-3.38,0-2.41-1.44-3.49-4.33-3.49h-4.68v12.27h1.86Zm0-1.59V149h2.54c1.27,0,2.65.27,2.65,1.8,0,1.9-1.4,2-3,2Z"/></g></g></svg>