<?xml version="1.0" encoding="utf-8"?>
<!-- Generator: Adobe Illustrator 25.4.1, SVG Export Plug-In . SVG Version: 6.00 Build 0)  -->
<svg version="1.1" xmlns="http://www.w3.org/2000/svg" xmlns:xlink="http://www.w3.org/1999/xlink" x="0px" y="0px"
	 viewBox="0 0 680 148.6" style="enable-background:new 0 0 680 148.6;" xml:space="preserve">
<style type="text/css">
	.st0{fill:#FFFFFF;}
	.st1{fill-rule:evenodd;clip-rule:evenodd;fill:url(#path20_00000065785158128332728760000002239679039557780414_);}
	.st2{fill-rule:evenodd;clip-rule:evenodd;fill:#FFFFFF;}
	.st3{fill:#2962B6;}
	.st4{fill:none;}
	.st5{filter:url(#Adobe_OpacityMaskFilter);}
	.st6{mask:url(#ccplus1_logo_dark_250-b_00000173841674018761626300000003203729525503236783_);}
	.st7{fill:none;stroke:#F0AB00;stroke-width:1.754;}
	.st8{fill:none;stroke:#F0AB00;stroke-width:2.889;}
	.st9{filter:url(#Adobe_OpacityMaskFilter_00000006710274510901700250000006899249690513590675_);}
	
		.st10{mask:url(#ccplus1_logo_dark_250-d_00000111910988612970051350000017350717540172651916_);fill:none;stroke:#F0AB00;stroke-width:2.889;stroke-linecap:round;}
	.st11{fill:none;stroke:#F0AB00;stroke-width:2.889;stroke-linecap:round;}
	.st12{font-family:'BentonSans-Bold';}
	.st13{font-size:32.7624px;}
	.st14{fill:#F0AB00;}
	.st15{font-size:31.0717px;}
</style>
<g id="Layer_2">
	<rect class="st0" width="680" height="148.2"/>
</g>
<g id="Layer_1">
	<g id="Layer_2_00000013187078057836816180000008370763645438611115_">
		<g id="Layer_1-2">
			<g id="g10">
				<g id="g12">
					
						<linearGradient id="path20_00000158749335947119058680000000503476150230057865_" gradientUnits="userSpaceOnUse" x1="-352.0718" y1="-305.8056" x2="-351.4818" y2="-305.8056" gradientTransform="matrix(0 -218.87 218.87 0 67062.7812 -76919.6406)">
						<stop  offset="0" style="stop-color:#2962B5"/>
						<stop  offset="1" style="stop-color:#21B8EF"/>
					</linearGradient>
					
						<path id="path20" style="fill-rule:evenodd;clip-rule:evenodd;fill:url(#path20_00000158749335947119058680000000503476150230057865_);" d="
						M0,139h132.5L262.2,9.3H0V139"/>
					<path id="path22" class="st2" d="M157.1,71.3h-5.7V50.5h5.7c7.6,0,13.6,2.5,13.6,10.3C170.8,68.8,164.8,71.3,157.1,71.3
						 M96,86.2c-2.8,0-5.6-0.5-8.3-1.5l8.2-25.8H96l8,25.9C101.5,85.7,98.7,86.2,96,86.2z M155.6,33.6h-25.8V95l-22.5-61.4H84.9
						L65.7,85c-2-12.9-15.4-17.4-26-20.8C32.7,62,25.4,58.7,25.4,55c0-3,4-5.7,11.7-5.3c5.2,0.3,9.8,0.7,18.9,5.1l9-15.6
						c-9.1-4.4-19.1-6.8-29.2-6.9h-0.1c-11,0-20.1,3.6-25.8,9.4c-3.9,4-6.1,9.4-6.2,15c-0.1,7.9,2.8,13.5,8.9,18
						c5.1,3.8,11.7,6.2,17.5,8c7.1,2.3,13,4.3,12.9,8.4c0,1.5-0.6,2.9-1.7,4c-1.8,1.8-4.5,2.6-8.3,2.6c-7.3,0.2-12.7-1-21.4-6.1
						l-8,15.8c8.9,5.1,19,7.7,29.2,7.8h1.3c9.1-0.2,16.4-2.8,22.2-7.5c0.3-0.2,0.6-0.5,0.9-0.8l-2.6,6.9h23.5l3.9-12
						c8.8,2.9,18.4,2.9,27.2,0.1l3.8,11.9h38.2V89.1h8.3c20.2,0,32.1-10.3,32.1-27.5C191.9,42.4,180.3,33.6,155.6,33.6"/>
					<path id="path24" class="st3" d="M169.3,130v-3h2c1,0,2.1,0.2,2.1,1.4c0,1.5-1.1,1.6-2.3,1.6H169.3z M169.3,131.2h1.7l2.6,4.2
						h1.7l-2.8-4.3c1.4,0,2.5-1.1,2.5-2.5c0-0.1,0-0.1,0-0.2c0-1.9-1.1-2.8-3.4-2.8h-3.7v9.7h1.5L169.3,131.2z M171.1,139
						c4.6-0.1,8.4-3.9,8.3-8.5c-0.1-4.6-3.9-8.4-8.5-8.3c-4.6,0.1-8.3,3.8-8.3,8.4c0,4.6,3.8,8.4,8.4,8.4C171,139,171,139,171.1,139
						L171.1,139z M164.2,130.6c0.1-3.8,3.2-6.8,7-6.7c3.8,0.1,6.8,3.2,6.7,7c-0.1,3.7-3.1,6.6-6.8,6.7c-3.8,0-6.8-3-6.9-6.8
						C164.2,130.7,164.2,130.7,164.2,130.6"/>
				</g>
			</g>
		</g>
	</g>
	<g>
		<rect x="254.3" y="1.1" class="st4" width="397.6" height="149.8"/>
		<g transform="translate(4.651 4.651)">
			<defs>
				<filter id="Adobe_OpacityMaskFilter" filterUnits="userSpaceOnUse" x="259.2" y="6.6" width="125.1" height="91.1">
					<feColorMatrix  type="matrix" values="1 0 0 0 0  0 1 0 0 0  0 0 1 0 0  0 0 0 1 0"/>
				</filter>
			</defs>
			
				<mask maskUnits="userSpaceOnUse" x="259.2" y="6.6" width="125.1" height="91.1" id="ccplus1_logo_dark_250-b_00000173841674018761626300000003203729525503236783_">
				<g class="st5">
					<path id="ccplus1_logo_dark_250-a_00000058554307939968281190000000365294528287374243_" class="st2" d="M385.7,3.9v58.1
						l-99.5,0l0,39h-29.1V3.9H385.7z"/>
				</g>
			</mask>
			<g class="st6">
				<g transform="translate(.763 .763)">
					<ellipse class="st7" cx="333.2" cy="20.6" rx="3.4" ry="3.3"/>
					<ellipse class="st7" cx="377.1" cy="56.4" rx="3.4" ry="3.3"/>
					<path class="st8" d="M311.1,25.8c-6.9,0-13.2,2.6-17.9,6.9c-4.7,4.3-7.8,10.2-8.4,16.9c-0.1,0.7-0.1,1.5-0.1,2.2
						c-0.7-0.1-1.5-0.1-2.2-0.1c-6.3,0-12,2.4-16.1,6.4c-4.1,4-6.6,9.4-6.6,15.5c0,6,2.5,11.5,6.6,15.5c4.1,4,9.7,6.4,15.9,6.4l0,0
						H367c4.2-0.4,8-2.3,10.7-5.2c2.7-2.8,4.3-6.6,4.3-10.8c0-3.9-1.4-7.5-3.8-10.3c-2.5-2.8-5.9-4.8-9.8-5.5
						c-0.6-0.1-1.2-0.2-1.8-0.2c0-0.6,0-1.2-0.1-1.9c-0.5-6.1-3.4-11.6-7.8-15.6c-4.4-3.9-10.2-6.3-16.7-6.3c-1.8,0-3.6,0.2-5.3,0.5
						c-0.6,0.1-1.1,0.3-1.7,0.4c-0.2-0.5-0.5-1-0.8-1.5c-2.3-4.1-5.6-7.4-9.7-9.8C320.6,27.1,316,25.8,311.1,25.8z"/>
					<g transform="translate(48.615 5.409)">
						<defs>
							
								<filter id="Adobe_OpacityMaskFilter_00000088113740858274704910000009678222258621114275_" filterUnits="userSpaceOnUse" x="286.5" y="9.5" width="37.9" height="32.4">
								<feColorMatrix  type="matrix" values="1 0 0 0 0  0 1 0 0 0  0 0 1 0 0  0 0 0 1 0"/>
							</filter>
						</defs>
						
							<mask maskUnits="userSpaceOnUse" x="286.5" y="9.5" width="37.9" height="32.4" id="ccplus1_logo_dark_250-d_00000111910988612970051350000017350717540172651916_">
							<g style="filter:url(#Adobe_OpacityMaskFilter_00000088113740858274704910000009678222258621114275_);">
								
									<rect id="ccplus1_logo_dark_250-c_00000120534547360138268580000011516839393517561259_" x="286.2" y="7.5" class="st2" width="42.3" height="37.6"/>
							</g>
						</mask>
						<path class="st10" d="M322.5,40.5c0.3-1.6,0.5-3.2,0.5-4.9c0-13.6-11.1-24.7-24.7-24.7c-3.7,0-7.1,0.8-10.3,2.2"/>
					</g>
					<path class="st11" d="M361.5,39.2c-0.9-7.3-7.1-12.9-14.7-12.9c-2.7,0-5.3,0.7-7.5,2"/>
					<path class="st11" d="M378.7,52.6c1.3-3.6,2-7.5,2-11.6c0-18.7-15.2-33.8-33.9-33.8c-10.6,0-20,4.8-26.3,12.4"/>
				</g>
			</g>
		</g>
		<text transform="matrix(1 0 0 1 298.1401 111.3965)" class="st12 st13">CONVERGED CLOUD</text>
		<text transform="matrix(1 0 0 1 298.4858 134.6016)" class="st14 st12 st15">PlusOne Infrastructure</text>
	</g>
</g>
</svg>
