<svg xmlns="http://www.w3.org/2000/svg" width="180" height="68" viewBox="0 0 180 68"><g fill="none" fill-rule="evenodd" transform="translate(0 2)"><path fill="#F0AB00" d="M14.2538087,43.76722 C8.11601833,43.6570309 3.1756384,38.8296737 3.1756384,32.8907705 C3.1756384,26.9518673 8.11601833,22.12451 14.2538087,22.014321 L14.4683975,22.0123962 L14.5818157,22.0137748 C15.0989485,15.4888784 20.7436251,10.349995 27.6308187,10.349995 C32.5681803,10.349995 36.8669732,12.9910294 39.0960003,16.8910527 C39.9400469,16.7149702 40.8165294,16.6222108 41.7156065,16.6222108 C47.587201,16.6222108 52.495135,20.5783925 53.6979584,25.8622329 C53.7926697,26.7260995 53.1589006,26.9407523 52.68784,26.9407523 C52.241572,26.9407523 51.771662,26.6144666 51.5700361,25.9719993 L51.5435429,25.8786407 C50.3814199,21.7300289 46.4087458,18.6902327 41.7156065,18.6902327 C41.0789764,18.6902327 40.450913,18.7457868 39.8364539,18.8551208 L39.5303814,18.9142613 L38.0239703,19.2285244 L37.2681719,17.9061395 C35.3886642,14.6176538 31.8349001,12.5038071 27.8738313,12.4205687 L27.6308187,12.4180169 C21.9426394,12.4180169 17.2297389,16.5886212 16.6922162,21.9647832 L16.6733935,22.1748475 L16.5203777,24.1055165 L14.4683975,24.0804181 C9.37957538,24.0804181 5.27358939,28.035736 5.27358939,32.8907705 C5.27358939,37.616642 9.16813884,41.5003058 14.0606528,41.693295 L14.2679646,41.6992451 L14.9370643,41.7022468 C15.508626,41.7022468 15.9719683,42.1655891 15.9719683,42.7371508 C15.9719683,43.3087125 15.508626,43.7720548 14.9370643,43.7720548 L14.2538087,43.76722 Z"/><path fill="#F0AB00" fill-rule="nonzero" d="M59.8126964,16.4666891 C59.91045,18.3319385 59.6851082,20.1709948 59.1554397,21.9208209 C59.1303722,22.0036345 59.0956139,22.0807235 59.0528104,22.1512052 C59.2877388,22.4631123 59.4361205,22.8472584 59.4581696,23.2679796 C59.5169671,24.3899027 58.6551335,25.3470659 57.5332104,25.4058634 C56.4112872,25.4646609 55.454124,24.6028273 55.3953265,23.4809042 C55.3373963,22.3755296 56.1731386,21.4300903 57.270812,21.3462062 C57.2717517,21.3434462 57.2731253,21.3387891 57.2745342,21.3341345 C57.7369229,19.8065757 57.9336685,18.2008984 57.8481781,16.5696451 C57.4491081,8.95493503 51.0135207,3.10111858 43.4725226,3.49632555 C39.3216172,3.71386528 35.5765565,5.79636456 33.1649777,9.11447569 C32.8430871,9.55736771 32.2273851,9.65155668 31.7897689,9.32485264 C31.3521526,8.9981486 31.2583385,8.37426774 31.5802292,7.93137572 C34.3373641,4.13781098 38.6230988,1.75466155 43.368213,1.50598064 C51.99289,1.05398048 59.3559488,7.75142588 59.8126964,16.4666891 Z M57.3829965,22.5396115 C56.9192003,22.563918 56.5642726,22.9581052 56.5883944,23.4183781 C56.6125163,23.878651 57.0067035,24.2335788 57.4704997,24.2092722 C57.9342958,24.1849657 58.2892236,23.7907785 58.2651017,23.3305056 C58.2409798,22.8702327 57.8467926,22.515305 57.3829965,22.5396115 Z M55.7375789,16.6194301 C55.7775323,17.3817858 55.742278,18.1601316 55.635144,18.9297604 C55.5596268,19.472261 55.0666999,19.8487932 54.5341608,19.7707686 C54.0016218,19.692744 53.6311324,19.1897089 53.7066496,18.6472083 C53.7962756,18.0033529 53.8257016,17.3536847 53.7925631,16.7213641 C53.5133743,11.3941236 49.0356568,7.29715808 43.7899465,7.57207411 C42.4105178,7.64436691 41.0900684,8.012698 39.893972,8.6458081 C39.8034445,8.69372558 39.708907,8.72571177 39.6134428,8.74276118 L39.6125063,8.69513565 C39.6713038,9.81705879 38.8094702,10.774222 37.6875471,10.8330195 C36.5656239,10.891817 35.6084607,10.0299834 35.5496632,8.90806023 C35.4908657,7.78613709 36.3526993,6.82897389 37.4746225,6.77017639 C37.9306162,6.74627877 38.3593928,6.87446295 38.7116972,7.11037955 C38.787889,7.01983508 38.8828017,6.94264191 38.9934164,6.88409204 C40.4352508,6.12090948 42.0271899,5.67684806 43.6860657,5.58991006 C50.0046968,5.25876464 55.4009496,10.1961601 55.7375789,16.6194301 Z M51.092813,15.7550979 C51.1875449,16.299799 50.841329,16.8195115 50.3195182,16.9159084 C49.7977073,17.0123052 49.2979007,16.6488828 49.2031688,16.1041816 C48.737482,13.4265186 46.4166432,11.4957847 43.7790592,11.6340146 C42.8353878,11.6834703 41.9442355,11.9908674 41.1755665,12.5187319 C40.7335148,12.8223 40.1376349,12.69352 39.8446315,12.2310937 C39.5516281,11.7686674 39.6724557,11.1477063 40.1145074,10.8441382 C41.1661883,10.1219222 42.3870084,9.70080846 43.6742088,9.63334914 C47.2803368,9.44435998 50.454528,12.0850081 51.092813,15.7550979 Z M37.5373332,7.96676759 C37.073537,7.99107412 36.7186093,8.38526128 36.7427311,8.84553419 C36.766853,9.3058071 37.1610402,9.66073482 37.6248364,9.63642829 C38.0886326,9.61212176 38.4435603,9.2179346 38.4194384,8.75766169 C38.3953165,8.29738878 38.0011293,7.94246106 37.5373332,7.96676759 Z"/><path fill="#FFF" fill-rule="nonzero" d="M24.486532,44.4554548 C25.2513226,44.4554548 25.9070325,44.3564024 26.4536617,44.1582976 C27.0002909,43.9601928 27.4672544,43.6853223 27.8545522,43.3336863 C28.24185,42.9820503 28.553159,42.5660302 28.7884792,42.085626 C29.0237994,41.6052218 29.2125458,41.0802441 29.3547184,40.5106928 L29.3547184,40.5106928 L26.5088149,39.8718048 C26.3372272,40.5750768 26.1055839,41.1087217 25.8138849,41.4727393 C25.522186,41.8367568 25.0846375,42.0187656 24.5012395,42.0187656 C23.7609614,42.0187656 23.2045272,41.7092269 22.8319369,41.0901493 C22.4593466,40.4710718 22.2730515,39.6439842 22.2730515,38.6088866 C22.2730515,37.5539785 22.4519929,36.735558 22.8098757,36.1536251 C23.1677584,35.5716923 23.7217414,35.2807258 24.4718245,35.2807258 C24.7659747,35.2807258 25.0160024,35.3314902 25.2219076,35.4330189 C25.4278128,35.5345476 25.600626,35.6707447 25.7403474,35.8416101 C25.8800687,36.0124755 25.9977288,36.2155329 26.0933277,36.4507823 C26.1889265,36.6860318 26.2759459,36.9398536 26.354386,37.2122477 L26.354386,37.2122477 L29.2002895,36.3579207 C29.0826294,35.8626587 28.913493,35.3946361 28.6928804,34.9538529 C28.4722677,34.5130697 28.1781175,34.1329561 27.8104297,33.8135121 C27.4427419,33.4940681 26.9880346,33.2402463 26.4463079,33.0520467 C25.9045813,32.8638471 25.2513226,32.7697474 24.486532,32.7697474 C23.7756689,32.7697474 23.1040259,32.8811813 22.4716029,33.1040492 C21.8391799,33.3269171 21.2864226,33.6736005 20.8133309,34.1440995 C20.3402393,34.6145984 19.9639721,35.2175799 19.6845294,35.953044 C19.4050867,36.6885081 19.2653653,37.573789 19.2653653,38.6088866 C19.2653653,39.6439842 19.4001842,40.5292651 19.6698219,41.2647292 C19.9394596,42.0001933 20.308373,42.604413 20.7765622,43.0773882 C21.2447513,43.5503634 21.7975086,43.898285 22.4348341,44.1211529 C23.0721596,44.3440208 23.7560589,44.4554548 24.486532,44.4554548 Z M35.9069149,44.4554548 C36.5785579,44.4554548 37.2416216,44.3440208 37.8961059,44.1211529 C38.5505901,43.898285 39.1364393,43.5503634 39.6536535,43.0773882 C40.1708677,42.604413 40.5875805,42.0001933 40.903792,41.2647292 C41.2200035,40.5292651 41.3781093,39.6439842 41.3781093,38.6088866 C41.3781093,37.573789 41.2200035,36.6885081 40.903792,35.953044 C40.5875805,35.2175799 40.1708677,34.6145984 39.6536535,34.1440995 C39.1364393,33.6736005 38.5505901,33.3269171 37.8961059,33.1040492 C37.2416216,32.8811813 36.5785579,32.7697474 35.9069149,32.7697474 C35.2352719,32.7697474 34.5709826,32.8811813 33.914047,33.1040492 C33.2571115,33.3269171 32.6700367,33.6736005 32.1528225,34.1440995 C31.6356083,34.6145984 31.2188955,35.2175799 30.902684,35.953044 C30.5864725,36.6885081 30.4283668,37.573789 30.4283668,38.6088866 C30.4283668,39.6439842 30.5864725,40.5292651 30.902684,41.2647292 C31.2188955,42.0001933 31.6356083,42.604413 32.1528225,43.0773882 C32.6700367,43.5503634 33.2571115,43.898285 33.914047,44.1211529 C34.5709826,44.3440208 35.2352719,44.4554548 35.9069149,44.4554548 Z M35.9069149,42.0187656 C35.1127093,42.0187656 34.5023475,41.7092269 34.0758297,41.0901493 C33.6493118,40.4710718 33.4360529,39.6439842 33.4360529,38.6088866 C33.4360529,37.5638837 33.6493118,36.7479396 34.0758297,36.1610541 C34.5023475,35.5741686 35.1127093,35.2807258 35.9069149,35.2807258 C36.6913155,35.2807258 37.2967748,35.5741686 37.7232926,36.1610541 C38.1498104,36.7479396 38.3630694,37.5638837 38.3630694,38.6088866 C38.3630694,39.6439842 38.1498104,40.4710718 37.7232926,41.0901493 C37.2967748,41.7092269 36.6913155,42.0187656 35.9069149,42.0187656 Z M45.6800565,44.2400158 L45.6800565,37.9402829 L45.7094715,37.9402829 L49.9746499,44.2400158 L52.7617234,44.2400158 L52.7617234,32.9777574 L50.0040649,32.9777574 L50.0040649,39.2923482 L49.9746499,39.2923482 L45.8933154,32.9777574 L42.922398,32.9777574 L42.922398,44.2400158 L45.6800565,44.2400158 Z M60.6081809,44.2845894 L64.4027189,32.9777574 L61.6009379,32.9777574 L59.2477361,40.3026827 L59.218321,40.3026827 L56.990133,32.9777574 L53.9456781,32.9777574 L57.7475699,44.2845894 L60.6081809,44.2845894 Z M73.7934652,44.2400158 L73.7934652,41.7884688 L68.6017135,41.7884688 L68.6017135,39.7083683 L72.1241626,39.7083683 L72.1241626,37.3311106 L68.6017135,37.3311106 L68.6017135,35.5035937 L73.5434375,35.5035937 L73.5434375,32.9777574 L65.5866736,32.9777574 L65.5866736,44.2400158 L73.7934652,44.2400158 Z M78.257195,44.2400158 L78.257195,40.3323985 L79.0808157,40.3323985 L81.2354662,44.2400158 L84.4269962,44.2400158 L82.0664406,39.9312362 C82.7969137,39.6786526 83.3459941,39.29111 83.7136819,38.7686086 C84.0813697,38.2461072 84.2652136,37.5391206 84.2652136,36.647649 C84.2652136,35.96914 84.1598097,35.3958742 83.9490021,34.9278516 C83.7381944,34.459829 83.4342392,34.0821917 83.0371363,33.7949397 C82.6400335,33.5076878 82.1559113,33.2996777 81.5847696,33.1709096 C81.0136279,33.0421415 80.3701742,32.9777574 79.6544086,32.9777574 L79.6544086,32.9777574 L75.3009852,32.9777574 L75.3009852,44.2400158 L78.257195,44.2400158 Z M79.5514561,38.0145722 L78.257195,38.0145722 L78.257195,35.4441623 L79.5514561,35.4441623 C80.1740741,35.4441623 80.62633,35.5382621 80.908224,35.7264616 C81.190118,35.9146612 81.331065,36.2464868 81.331065,36.7219383 C81.331065,37.2023425 81.190118,37.5378825 80.908224,37.7285584 C80.62633,37.9192342 80.1740741,38.0145722 79.5514561,38.0145722 L79.5514561,38.0145722 Z M90.5967974,44.4554548 C91.0184127,44.4554548 91.3922287,44.3910707 91.7182452,44.2623026 C92.0442617,44.1335345 92.32493,43.9812414 92.5602502,43.8054234 C92.7955704,43.6296054 92.9830912,43.4451203 93.1228125,43.2519681 C93.2625339,43.0588159 93.3520046,42.8904268 93.3912246,42.7468008 L93.3912246,42.7468008 L93.4279934,42.7468008 L93.4279934,44.2400158 L95.788549,44.2400158 L95.788549,38.4454501 L91.302758,38.4454501 L91.302758,40.6667003 L92.927938,40.6667003 C92.7661554,41.0827204 92.5198046,41.4120697 92.1888855,41.6547481 C91.8579665,41.8974264 91.4522843,42.0187656 90.9718389,42.0187656 C90.7708363,42.0187656 90.5367417,41.9828591 90.2695553,41.9110461 C90.0023688,41.8392332 89.7486642,41.6844638 89.5084415,41.446738 C89.2682188,41.2090122 89.0623137,40.8598525 88.890726,40.3992588 C88.7191384,39.9386651 88.6333446,39.3121587 88.6333446,38.5197394 C88.6333446,37.8907567 88.6958515,37.3682552 88.8208653,36.9522351 C88.9458792,36.536215 89.1113387,36.2043895 89.3172439,35.9567585 C89.523149,35.7091275 89.7596949,35.5345476 90.0268813,35.4330189 C90.2940678,35.3314902 90.5624799,35.2807258 90.8321176,35.2807258 C91.2635379,35.2807258 91.6422564,35.4218755 91.9682729,35.7041748 C92.2942894,35.9864742 92.5700552,36.4891652 92.7955704,37.2122477 L92.7955704,37.2122477 L95.5458751,36.43221 C95.3448724,35.6942696 95.0862654,35.0888118 94.7700539,34.6158365 C94.4538424,34.1428613 94.0922827,33.7701766 93.6853749,33.4977825 C93.278467,33.2253884 92.8347904,33.0359507 92.3543451,32.9294694 C91.8738997,32.822988 91.371393,32.7697474 90.8468251,32.7697474 C90.0133994,32.7697474 89.2731213,32.9059444 88.6259908,33.1783385 C87.9788603,33.4507326 87.4322311,33.8382752 86.9861033,34.3409661 C86.5399754,34.8436571 86.1992514,35.4528294 85.9639312,36.168483 C85.728611,36.8841366 85.6109509,37.6827466 85.6109509,38.564313 C85.6109509,39.4161637 85.7028729,40.1999159 85.8867168,40.9155695 C86.0705606,41.6312231 86.3634853,42.2527769 86.7654906,42.780231 C87.1674959,43.3076851 87.6822588,43.7187525 88.3097793,44.0134334 C88.9372998,44.3081143 89.6996392,44.4554548 90.5967974,44.4554548 Z M106.024977,44.2400158 L106.024977,41.7884688 L100.833226,41.7884688 L100.833226,39.7083683 L104.355675,39.7083683 L104.355675,37.3311106 L100.833226,37.3311106 L100.833226,35.5035937 L105.77495,35.5035937 L105.77495,32.9777574 L97.8181857,32.9777574 L97.8181857,44.2400158 L106.024977,44.2400158 Z M111.194668,44.2400158 C112.008483,44.2400158 112.786756,44.1508686 113.529485,43.9725743 C114.272214,43.79428 114.924247,43.4872175 115.485584,43.051387 C116.046921,42.6155564 116.494274,42.029909 116.827645,41.2944449 C117.161015,40.5589808 117.3277,39.6390316 117.3277,38.5345973 C117.3277,37.469784 117.163466,36.5795505 116.834998,35.8638968 C116.506531,35.1482432 116.061628,34.5774537 115.500292,34.1515284 C114.938955,33.7256031 114.286922,33.4234932 113.544193,33.2451989 C112.801463,33.0669046 112.018288,32.9777574 111.194668,32.9777574 L111.194668,32.9777574 L107.532497,32.9777574 L107.532497,44.2400158 L111.194668,44.2400158 Z M111.363804,41.7884688 L110.53283,41.7884688 L110.53283,35.5035937 L111.327035,35.5035937 C111.900628,35.5035937 112.378622,35.5655015 112.761018,35.689317 C113.143413,35.8131325 113.449819,36.0013321 113.680237,36.2539157 C113.910655,36.5064993 114.073663,36.8259433 114.169262,37.2122477 C114.264861,37.5985521 114.31266,38.0492405 114.31266,38.564313 C114.31266,39.1338644 114.264861,39.6241738 114.169262,40.0352412 C114.073663,40.4463087 113.913106,40.7806106 113.687591,41.0381468 C113.462076,41.2956831 113.160572,41.4851208 112.783079,41.60646 C112.405586,41.7277992 111.932494,41.7884688 111.363804,41.7884688 L111.363804,41.7884688 Z M127.88034,44.4554548 C128.64513,44.4554548 129.30084,44.3564024 129.847469,44.1582976 C130.394099,43.9601928 130.861062,43.6853223 131.24836,43.3336863 C131.635658,42.9820503 131.946967,42.5660302 132.182287,42.085626 C132.417607,41.6052218 132.606354,41.0802441 132.748526,40.5106928 L132.748526,40.5106928 L129.902623,39.8718048 C129.731035,40.5750768 129.499392,41.1087217 129.207693,41.4727393 C128.915994,41.8367568 128.478445,42.0187656 127.895047,42.0187656 C127.154769,42.0187656 126.598335,41.7092269 126.225745,41.0901493 C125.853154,40.4710718 125.666859,39.6439842 125.666859,38.6088866 C125.666859,37.5539785 125.845801,36.735558 126.203683,36.1536251 C126.561566,35.5716923 127.115549,35.2807258 127.865632,35.2807258 C128.159782,35.2807258 128.40981,35.3314902 128.615715,35.4330189 C128.82162,35.5345476 128.994434,35.6707447 129.134155,35.8416101 C129.273876,36.0124755 129.391537,36.2155329 129.487135,36.4507823 C129.582734,36.6860318 129.669754,36.9398536 129.748194,37.2122477 L129.748194,37.2122477 L132.594097,36.3579207 C132.476437,35.8626587 132.307301,35.3946361 132.086688,34.9538529 C131.866075,34.5130697 131.571925,34.1329561 131.204237,33.8135121 C130.83655,33.4940681 130.381842,33.2402463 129.840116,33.0520467 C129.298389,32.8638471 128.64513,32.7697474 127.88034,32.7697474 C127.169477,32.7697474 126.497834,32.8811813 125.865411,33.1040492 C125.232988,33.3269171 124.68023,33.6736005 124.207139,34.1440995 C123.734047,34.6145984 123.35778,35.2175799 123.078337,35.953044 C122.798894,36.6885081 122.659173,37.573789 122.659173,38.6088866 C122.659173,39.6439842 122.793992,40.5292651 123.06363,41.2647292 C123.333267,42.0001933 123.702181,42.604413 124.17037,43.0773882 C124.638559,43.5503634 125.191316,43.898285 125.828642,44.1211529 C126.465967,44.3440208 127.149867,44.4554548 127.88034,44.4554548 Z M142.043674,44.2400158 L142.043674,41.7884688 L137.359331,41.7884688 L137.359331,32.9777574 L134.344291,32.9777574 L134.344291,44.2400158 L142.043674,44.2400158 Z M148.264951,44.4554548 C148.936594,44.4554548 149.599658,44.3440208 150.254142,44.1211529 C150.908626,43.898285 151.494475,43.5503634 152.01169,43.0773882 C152.528904,42.604413 152.945617,42.0001933 153.261828,41.2647292 C153.57804,40.5292651 153.736145,39.6439842 153.736145,38.6088866 C153.736145,37.573789 153.57804,36.6885081 153.261828,35.953044 C152.945617,35.2175799 152.528904,34.6145984 152.01169,34.1440995 C151.494475,33.6736005 150.908626,33.3269171 150.254142,33.1040492 C149.599658,32.8811813 148.936594,32.7697474 148.264951,32.7697474 C147.593308,32.7697474 146.929019,32.8811813 146.272083,33.1040492 C145.615148,33.3269171 145.028073,33.6736005 144.510859,34.1440995 C143.993644,34.6145984 143.576932,35.2175799 143.26072,35.953044 C142.944509,36.6885081 142.786403,37.573789 142.786403,38.6088866 C142.786403,39.6439842 142.944509,40.5292651 143.26072,41.2647292 C143.576932,42.0001933 143.993644,42.604413 144.510859,43.0773882 C145.028073,43.5503634 145.615148,43.898285 146.272083,44.1211529 C146.929019,44.3440208 147.593308,44.4554548 148.264951,44.4554548 Z M148.264951,42.0187656 C147.470745,42.0187656 146.860384,41.7092269 146.433866,41.0901493 C146.007348,40.4710718 145.794089,39.6439842 145.794089,38.6088866 C145.794089,37.5638837 146.007348,36.7479396 146.433866,36.1610541 C146.860384,35.5741686 147.470745,35.2807258 148.264951,35.2807258 C149.049352,35.2807258 149.654811,35.5741686 150.081329,36.1610541 C150.507847,36.7479396 150.721106,37.5638837 150.721106,38.6088866 C150.721106,39.6439842 150.507847,40.4710718 150.081329,41.0901493 C149.654811,41.7092269 149.049352,42.0187656 148.264951,42.0187656 Z M159.744164,44.4108812 C161.366893,44.4108812 162.549622,44.00229 163.292351,43.1851077 C164.035081,42.3679254 164.406445,41.2139649 164.406445,39.7232262 L164.406445,39.7232262 L164.406445,32.9777574 L161.457589,32.9777574 L161.457589,39.7083683 C161.457589,40.4859297 161.326447,41.055481 161.064163,41.4170223 C160.801879,41.7785636 160.371684,41.9593342 159.773579,41.9593342 C159.170571,41.9593342 158.735474,41.7785636 158.468287,41.4170223 C158.201101,41.055481 158.067508,40.4859297 158.067508,39.7083683 L158.067508,39.7083683 L158.067508,32.9777574 L155.059821,32.9777574 L155.059821,39.7232262 C155.059821,41.2139649 155.433637,42.3679254 156.181269,43.1851077 C156.928901,44.00229 158.116533,44.4108812 159.744164,44.4108812 Z M169.921762,44.2400158 C170.735578,44.2400158 171.51385,44.1508686 172.25658,43.9725743 C172.999309,43.79428 173.651342,43.4872175 174.212679,43.051387 C174.774015,42.6155564 175.221369,42.029909 175.554739,41.2944449 C175.888109,40.5589808 176.054795,39.6390316 176.054795,38.5345973 C176.054795,37.469784 175.890561,36.5795505 175.562093,35.8638968 C175.233625,35.1482432 174.788723,34.5774537 174.227386,34.1515284 C173.666049,33.7256031 173.014016,33.4234932 172.271287,33.2451989 C171.528558,33.0669046 170.745383,32.9777574 169.921762,32.9777574 L169.921762,32.9777574 L166.259592,32.9777574 L166.259592,44.2400158 L169.921762,44.2400158 Z M170.090898,41.7884688 L169.259924,41.7884688 L169.259924,35.5035937 L170.05413,35.5035937 C170.627723,35.5035937 171.105717,35.5655015 171.488112,35.689317 C171.870507,35.8131325 172.176914,36.0013321 172.407332,36.2539157 C172.637749,36.5064993 172.800758,36.8259433 172.896356,37.2122477 C172.991955,37.5985521 173.039755,38.0492405 173.039755,38.564313 C173.039755,39.1338644 172.991955,39.6241738 172.896356,40.0352412 C172.800758,40.4463087 172.640201,40.7806106 172.414685,41.0381468 C172.18917,41.2956831 171.887666,41.4851208 171.510173,41.60646 C171.132681,41.7277992 170.659589,41.7884688 170.090898,41.7884688 L170.090898,41.7884688 Z"/><path fill="#F0AB00" fill-rule="nonzero" d="M22.3862051,59.1272258 L22.3862051,48.2114438 L20.0167959,48.2114438 L20.0167959,59.1272258 L22.3862051,59.1272258 Z M26.8752365,59.1272258 L26.8752365,53.8493444 C27.1369183,53.6237324 27.4069262,53.4365224 27.6852605,53.2877144 C27.9635947,53.1389065 28.2573919,53.0645025 28.5666522,53.0645025 C28.8997016,53.0645025 29.1364047,53.1557074 29.2767613,53.3381171 C29.4171178,53.5205269 29.4872961,53.7893412 29.4872961,54.1445601 L29.4872961,54.1445601 L29.4872961,59.1272258 L31.8281583,59.1272258 L31.8281583,53.3885198 C31.8281583,52.9852983 31.7722535,52.6396799 31.6604441,52.3516645 C31.5486346,52.0636492 31.392815,51.8284366 31.1929853,51.6460269 C30.9931556,51.4636172 30.7540737,51.3280099 30.4757394,51.2392052 C30.1974052,51.1504005 29.8940923,51.1059981 29.5658006,51.1059981 C29.2232354,51.1059981 28.9127857,51.1504005 28.6344515,51.2392052 C28.3561173,51.3280099 28.1051407,51.440816 27.8815218,51.5776233 C27.6579028,51.7144305 27.462831,51.8644385 27.2963062,52.0276472 C27.1297815,52.190856 26.9894249,52.3492644 26.8752365,52.5028726 L26.8752365,52.5028726 L26.8752365,51.2644066 L24.5201008,51.2644066 L24.5201008,59.1272258 L26.8752365,59.1272258 Z M36.5812503,59.1272258 L36.5812503,52.9924987 L38.272666,52.9924987 L38.272666,51.2644066 L36.5812503,51.2644066 L36.5812503,50.7963816 C36.5812503,50.5899706 36.6097974,50.4231617 36.6668916,50.2959549 C36.7239858,50.1687481 36.8036798,50.072743 36.9059736,50.0079396 C37.0082674,49.9431361 37.1260242,49.9011339 37.2592439,49.8819328 C37.3924637,49.8627318 37.5328203,49.8531313 37.6803137,49.8531313 C37.7945021,49.8531313 37.9217745,49.8579316 38.0621311,49.8675321 C38.2024877,49.8771326 38.303592,49.8915333 38.3654441,49.9107344 L38.3654441,49.9107344 L38.3654441,48.2618464 C38.336897,48.2522459 38.2667187,48.2414454 38.1549092,48.2294447 C38.0430997,48.2174441 37.9158272,48.2066435 37.7730917,48.197043 C37.6303562,48.1874425 37.4864313,48.177842 37.3413169,48.1682415 C37.1962024,48.1586409 37.0641721,48.1538407 36.9452259,48.1538407 C36.369526,48.1538407 35.9044462,48.2258445 35.5499864,48.3698522 C35.1955265,48.5138599 34.9207607,48.7058701 34.7256889,48.9458829 C34.530617,49.1858957 34.4009656,49.4607104 34.3367346,49.7703269 C34.2725037,50.0799434 34.2403882,50.3979603 34.2403882,50.7243778 L34.2403882,50.7243778 L34.2403882,51.2644066 L32.9414952,51.2644066 L32.9414952,52.9924987 L34.2403882,52.9924987 L34.2403882,59.1272258 L36.5812503,59.1272258 Z M41.8125063,59.1272258 L41.8125063,54.2453655 C42.0361253,53.9621504 42.3204068,53.7125371 42.6653509,53.4965256 C43.010295,53.2805141 43.4159017,53.1725083 43.882171,53.1725083 C43.9630545,53.1725083 44.0736745,53.1773086 44.2140311,53.1869091 C44.3543876,53.1965096 44.4483552,53.2061101 44.4959337,53.2157106 L44.4959337,53.2157106 L44.5316175,51.1059981 L44.453113,51.1059981 C44.0867586,51.1059981 43.7644142,51.1528006 43.48608,51.2464056 C43.2077458,51.3400106 42.963906,51.4576169 42.7545606,51.5992244 C42.5452152,51.740832 42.3644169,51.8980403 42.2121657,52.0708496 C42.0599145,52.2436588 41.9314526,52.4140679 41.8267799,52.5820768 L41.8267799,52.5820768 L41.8125063,52.5820768 L41.8125063,51.2644066 L39.4573706,51.2644066 L39.4573706,59.1272258 L41.8125063,59.1272258 Z M47.3506436,59.242432 C47.9311013,59.242432 48.4390018,59.1344262 48.8743451,58.9184147 C49.3096883,58.7024032 49.7057793,58.3879864 50.0626181,57.9751644 C50.0626181,58.2007764 50.08046,58.4071874 50.1161439,58.5943974 C50.1518278,58.7816074 50.1934589,58.9592169 50.2410374,59.1272258 L50.2410374,59.1272258 L52.5818996,59.1272258 C52.5010162,58.9304153 52.443922,58.6796019 52.410617,58.3747857 C52.3773121,58.0699694 52.3606596,57.6823488 52.3606596,57.2119237 L52.3606596,57.2119237 L52.3606596,54.1877624 C52.3606596,53.1749084 52.1263355,52.4080675 51.6576873,51.8872398 C51.189039,51.366412 50.4194568,51.1059981 49.3489406,51.1059981 C48.8636399,51.1059981 48.4235388,51.1456002 48.0286372,51.2248044 C47.6337357,51.3040087 47.2804653,51.4096143 46.9688262,51.5416213 C46.657187,51.6736284 46.3764738,51.8236364 46.1266867,51.9916453 C45.8768996,52.1596543 45.6544701,52.3300634 45.4593983,52.5028726 L45.4593983,52.5028726 L46.4585468,53.8637452 C46.8153855,53.5757298 47.2067187,53.3417173 47.6325462,53.1617077 C48.0583738,52.9816981 48.5186958,52.8916933 49.0135122,52.8916933 C49.3941402,52.8916933 49.6641481,52.9768979 49.8235361,53.147307 C49.9829241,53.317716 50.0626181,53.5469283 50.0626181,53.8349436 L50.0626181,53.8349436 L50.0626181,54.0221536 C48.3497921,54.161361 47.0984776,54.4865784 46.3086745,54.9978056 C45.5188714,55.5090329 45.1239699,56.2158706 45.1239699,57.1183187 C45.1239699,57.4543366 45.1822535,57.7555527 45.2988208,58.0219669 C45.4153882,58.2883811 45.5759656,58.511593 45.7805531,58.6916026 C45.9851407,58.8716122 46.2218437,59.0084195 46.4906622,59.1020245 C46.7594808,59.1956295 47.0461412,59.242432 47.3506436,59.242432 Z M48.2855611,57.4639371 C48.0286372,57.4639371 47.8204813,57.4015338 47.6610933,57.2767271 C47.5017054,57.1519205 47.4220114,56.9623104 47.4220114,56.7078968 C47.4220114,56.3430774 47.6289778,56.0454615 48.0429108,55.8150492 C48.4568437,55.5846369 49.1300795,55.4214282 50.0626181,55.3254231 L50.0626181,55.3254231 L50.0626181,56.7799006 C49.8723041,56.9767111 49.6308432,57.1399198 49.3382354,57.2695268 C49.0456277,57.3991337 48.6947362,57.4639371 48.2855611,57.4639371 Z M57.1422987,59.2928346 C57.5895366,59.2928346 58.0201221,59.243632 58.434055,59.1452268 C58.8479879,59.0468215 59.2131529,58.8920133 59.5295499,58.680802 C59.845947,58.4695907 60.0993025,58.193576 60.2896165,57.8527579 C60.4799305,57.5119397 60.5750875,57.1063181 60.5750875,56.635893 C60.5750875,56.1942694 60.4823094,55.83065 60.2967532,55.5450348 C60.1111971,55.2594196 59.8709257,55.0302074 59.575939,54.8573981 C59.2809523,54.6845889 58.9431449,54.5537819 58.5625169,54.4649772 C58.1818889,54.3761725 57.801261,54.2981683 57.420633,54.2309647 C56.9353323,54.1445601 56.5820619,54.0413546 56.3608219,53.9213482 C56.1395819,53.8013418 56.0289619,53.6237324 56.0289619,53.3885198 C56.0289619,53.1725083 56.119361,53.0032993 56.3001593,52.8808927 C56.4809576,52.7584862 56.7426394,52.697283 57.0852045,52.697283 C57.4563168,52.697283 57.8309975,52.7716869 58.2092466,52.9204949 C58.5874957,53.0693028 58.9764499,53.2805141 59.3761093,53.5541286 L59.3761093,53.5541286 L60.2967532,52.2076568 C59.8685467,51.8668387 59.3915723,51.5980243 58.8658299,51.4012138 C58.3400875,51.2044034 57.6775569,51.1059981 56.8782381,51.1059981 C56.4405159,51.1059981 56.0384776,51.1624011 55.6721231,51.2752071 C55.3057687,51.3880131 54.9869927,51.5500218 54.7157953,51.761233 C54.4445978,51.9724443 54.2328735,52.2328582 54.0806223,52.5424747 C53.9283711,52.8520912 53.8522455,53.20371 53.8522455,53.5973309 C53.8522455,54.0581555 53.9426447,54.4337755 54.123443,54.724191 C54.3042413,55.0146065 54.5385654,55.248619 54.8264153,55.4262285 C55.1142652,55.6038379 55.4401779,55.737045 55.8041535,55.8258498 C56.168129,55.9146545 56.5356729,55.9926587 56.9067852,56.0598623 C57.4444222,56.1558674 57.8250502,56.2686734 58.0486692,56.3982803 C58.2722881,56.5278872 58.3840976,56.729498 58.3840976,57.0031126 C58.3840976,57.2575261 58.2699092,57.4495364 58.0415324,57.5791433 C57.8131556,57.7087502 57.513411,57.7735536 57.1422987,57.7735536 C56.6665138,57.7735536 56.1847814,57.6823488 55.6971018,57.499939 C55.2094222,57.3175293 54.789542,57.067916 54.4374611,56.7510991 L54.4374611,56.7510991 L53.5025436,58.0831701 C53.902203,58.4239883 54.3946404,58.7108036 54.979856,58.943616 C55.5650715,59.1764284 56.2858858,59.2928346 57.1422987,59.2928346 Z M65.1568969,59.2280312 C65.280601,59.2280312 65.4233365,59.2232309 65.5851034,59.2136304 C65.7468703,59.2040299 65.9026899,59.1944294 66.0525622,59.1848289 C66.2024344,59.1752284 66.3368437,59.1632277 66.45579,59.148827 C66.5747362,59.1344262 66.6579986,59.1224256 66.7055771,59.112825 L66.7055771,59.112825 L66.7055771,57.4135344 C66.6246936,57.4471362 66.5093158,57.4711375 66.3594435,57.4855383 C66.2095712,57.499939 66.0656463,57.5071394 65.9276686,57.5071394 C65.4994621,57.5071394 65.2128017,57.4279352 65.0676872,57.2695268 C64.9225728,57.1111183 64.8500156,56.8207028 64.8500156,56.3982803 L64.8500156,56.3982803 L64.8500156,52.9924987 L66.8483126,52.9924987 L66.8483126,51.2644066 L64.8500156,51.2644066 L64.8500156,48.571463 L62.5091534,48.571463 L62.5091534,51.2644066 L61.2102604,51.2644066 L61.2102604,52.9924987 L62.5091534,52.9924987 L62.5091534,56.9167079 C62.5091534,57.2911279 62.53889,57.6199454 62.5983631,57.9031605 C62.6578363,58.1863756 62.7791614,58.4263884 62.9623387,58.6231989 C63.1455159,58.8200094 63.4131449,58.9700174 63.7652258,59.0732229 C64.1173067,59.1764284 64.5811971,59.2280312 65.1568969,59.2280312 Z M70.4737942,59.1272258 L70.4737942,54.2453655 C70.6974132,53.9621504 70.9816947,53.7125371 71.3266388,53.4965256 C71.6715829,53.2805141 72.0771896,53.1725083 72.5434589,53.1725083 C72.6243424,53.1725083 72.7349624,53.1773086 72.8753189,53.1869091 C73.0156755,53.1965096 73.1096431,53.2061101 73.1572216,53.2157106 L73.1572216,53.2157106 L73.1929054,51.1059981 L73.1144009,51.1059981 C72.7480465,51.1059981 72.4257021,51.1528006 72.1473679,51.2464056 C71.8690337,51.3400106 71.6251939,51.4576169 71.4158485,51.5992244 C71.2065031,51.740832 71.0257048,51.8980403 70.8734536,52.0708496 C70.7212024,52.2436588 70.5927405,52.4140679 70.4880678,52.5820768 L70.4880678,52.5820768 L70.4737942,52.5820768 L70.4737942,51.2644066 L68.1186585,51.2644066 L68.1186585,59.1272258 L70.4737942,59.1272258 Z M76.504369,59.2928346 C76.8469342,59.2928346 77.1573839,59.2484323 77.4357181,59.1596275 C77.7140523,59.0708228 77.9650289,58.9592169 78.1886478,58.8248097 C78.4122668,58.6904025 78.6061492,58.5403945 78.770295,58.3747857 C78.9344408,58.2091769 79.0759869,58.0519685 79.1949331,57.9031605 L79.1949331,57.9031605 L79.1949331,59.1272258 L81.5500688,59.1272258 L81.5500688,51.2644066 L79.1949331,51.2644066 L79.1949331,56.6070914 C78.9332514,56.8327035 78.6632434,57.0211135 78.3849092,57.1723216 C78.1065749,57.3235296 77.8103988,57.3991337 77.4963807,57.3991337 C77.168089,57.3991337 76.9325755,57.3067287 76.78984,57.1219189 C76.6471045,56.937109 76.5757367,56.6670946 76.5757367,56.3118757 L76.5757367,56.3118757 L76.5757367,51.2644066 L74.2277378,51.2644066 L74.2277378,57.0031126 C74.2277378,57.4063341 74.2836425,57.7531525 74.395452,58.043568 C74.5072615,58.3339835 74.66546,58.5727963 74.8700475,58.7600062 C75.0746351,58.9472162 75.316096,59.0828234 75.5944302,59.1668279 C75.8727644,59.2508324 76.1760773,59.2928346 76.504369,59.2928346 Z M86.7385041,59.2928346 C87.2571098,59.2928346 87.7079161,59.2256311 88.090923,59.0912239 C88.4739299,58.9568167 88.8046005,58.7792073 89.0829347,58.5583955 C89.3612689,58.3375837 89.595593,58.0819701 89.785907,57.7915546 C89.976221,57.5011391 90.135609,57.2047233 90.2640709,56.9023072 L90.2640709,56.9023072 L88.3157314,56.2254711 C88.1492066,56.7534992 87.9303455,57.1183187 87.6591481,57.3199294 C87.3879507,57.5215402 87.0953429,57.6223456 86.7813248,57.6223456 C86.5101273,57.6223456 86.2793716,57.5635424 86.0890576,57.4459362 C85.8987436,57.3283299 85.742924,57.161521 85.6215989,56.9455095 C85.5002737,56.729498 85.4098745,56.4762845 85.3504014,56.185869 C85.2909283,55.8954535 85.2611917,55.5726363 85.2611917,55.2174173 C85.2611917,54.4301754 85.4003588,53.8385438 85.6786931,53.4425227 C85.9570273,53.0465016 86.3340869,52.848491 86.8098719,52.848491 C87.1524371,52.848491 87.440287,52.9432961 87.6734216,53.1329062 C87.9065563,53.3225163 88.1016281,53.6693348 88.2586372,54.1733617 L88.2586372,54.1733617 L90.2355238,53.5109263 C90.1165776,53.1941094 89.9738421,52.8904933 89.8073173,52.6000778 C89.6407926,52.3096623 89.4266893,52.0540487 89.1650076,51.8332369 C88.9033258,51.6124251 88.582171,51.4360157 88.201543,51.3040087 C87.820915,51.1720016 87.3665403,51.1059981 86.838419,51.1059981 C86.4102125,51.1059981 85.9653535,51.1720016 85.5038421,51.3040087 C85.0423306,51.4360157 84.618882,51.6592276 84.2334962,51.9736444 C83.8481103,52.2880611 83.5317133,52.7080835 83.2843051,53.2337116 C83.0368969,53.7593396 82.9131928,54.4157746 82.9131928,55.2030166 C82.9131928,55.9710575 83.0273812,56.6154919 83.255758,57.1363197 C83.4841348,57.6571474 83.780311,58.0771698 84.1442865,58.3963868 C84.508262,58.7156039 84.9174371,58.9448161 85.3718117,59.0840235 C85.8261864,59.2232309 86.2817505,59.2928346 86.7385041,59.2928346 Z M94.7245552,59.2280312 C94.8482593,59.2280312 94.9909948,59.2232309 95.1527617,59.2136304 C95.3145286,59.2040299 95.4703482,59.1944294 95.6202205,59.1848289 C95.7700927,59.1752284 95.904502,59.1632277 96.0234482,59.148827 C96.1423945,59.1344262 96.2256569,59.1224256 96.2732354,59.112825 L96.2732354,59.112825 L96.2732354,57.4135344 C96.1923519,57.4471362 96.0769741,57.4711375 95.9271018,57.4855383 C95.7772295,57.499939 95.6333046,57.5071394 95.4953269,57.5071394 C95.0671204,57.5071394 94.78046,57.4279352 94.6353455,57.2695268 C94.4902311,57.1111183 94.4176739,56.8207028 94.4176739,56.3982803 L94.4176739,56.3982803 L94.4176739,52.9924987 L96.4159709,52.9924987 L96.4159709,51.2644066 L94.4176739,51.2644066 L94.4176739,48.571463 L92.0768117,48.571463 L92.0768117,51.2644066 L90.7779187,51.2644066 L90.7779187,52.9924987 L92.0768117,52.9924987 L92.0768117,56.9167079 C92.0768117,57.2911279 92.1065483,57.6199454 92.1660214,57.9031605 C92.2254946,58.1863756 92.3468197,58.4263884 92.5299969,58.6231989 C92.7131742,58.8200094 92.9808032,58.9700174 93.3328841,59.0732229 C93.684965,59.1764284 94.1488554,59.2280312 94.7245552,59.2280312 Z M99.8915802,59.2928346 C100.234145,59.2928346 100.544595,59.2484323 100.822929,59.1596275 C101.101264,59.0708228 101.35224,58.9592169 101.575859,58.8248097 C101.799478,58.6904025 101.99336,58.5403945 102.157506,58.3747857 C102.321652,58.2091769 102.463198,58.0519685 102.582144,57.9031605 L102.582144,57.9031605 L102.582144,59.1272258 L104.93728,59.1272258 L104.93728,51.2644066 L102.582144,51.2644066 L102.582144,56.6070914 C102.320463,56.8327035 102.050455,57.0211135 101.77212,57.1723216 C101.493786,57.3235296 101.19761,57.3991337 100.883592,57.3991337 C100.5553,57.3991337 100.319787,57.3067287 100.177051,57.1219189 C100.034316,56.937109 99.962948,56.6670946 99.962948,56.3118757 L99.962948,56.3118757 L99.962948,51.2644066 L97.614949,51.2644066 L97.614949,57.0031126 C97.614949,57.4063341 97.6708538,57.7531525 97.7826633,58.043568 C97.8944727,58.3339835 98.0526712,58.5727963 98.2572588,58.7600062 C98.4618463,58.9472162 98.7033072,59.0828234 98.9816414,59.1668279 C99.2599757,59.2508324 99.5632886,59.2928346 99.8915802,59.2928346 Z M109.076609,59.1272258 L109.076609,54.2453655 C109.300228,53.9621504 109.58451,53.7125371 109.929454,53.4965256 C110.274398,53.2805141 110.680005,53.1725083 111.146274,53.1725083 C111.227158,53.1725083 111.337778,53.1773086 111.478134,53.1869091 C111.618491,53.1965096 111.712458,53.2061101 111.760037,53.2157106 L111.760037,53.2157106 L111.795721,51.1059981 L111.717216,51.1059981 C111.350862,51.1059981 111.028517,51.1528006 110.750183,51.2464056 C110.471849,51.3400106 110.228009,51.4576169 110.018664,51.5992244 C109.809318,51.740832 109.62852,51.8980403 109.476269,52.0708496 C109.324018,52.2436588 109.195556,52.4140679 109.090883,52.5820768 L109.090883,52.5820768 L109.076609,52.5820768 L109.076609,51.2644066 L106.721474,51.2644066 L106.721474,59.1272258 L109.076609,59.1272258 Z M116.456035,59.2928346 C117.797748,59.2928346 118.927738,58.8992137 119.846003,58.1119717 L119.846003,58.1119717 L118.939632,56.693496 C118.673193,56.9383091 118.337764,57.1567207 117.933347,57.348731 C117.52893,57.5407412 117.093587,57.6367463 116.627317,57.6367463 C116.132501,57.6367463 115.722136,57.498739 115.396224,57.2227243 C115.070311,56.9467095 114.876429,56.4846849 114.814576,55.8366504 L114.814576,55.8366504 L119.974465,55.8366504 L119.974465,55.4838315 C119.974465,54.5909839 119.862655,53.861345 119.639036,53.2949148 C119.415417,52.7284846 119.131136,52.2832609 118.786192,51.9592436 C118.441248,51.6352263 118.055862,51.4120144 117.630034,51.2896079 C117.204207,51.1672014 116.791463,51.1059981 116.391804,51.1059981 C115.992144,51.1059981 115.563938,51.1768019 115.107184,51.3184094 C114.650431,51.460017 114.226982,51.6904293 113.836838,52.0096463 C113.446695,52.3288633 113.123161,52.7488857 112.866237,53.2697135 C112.609313,53.7905412 112.480851,54.4349756 112.480851,55.2030166 C112.480851,55.961457 112.592661,56.6010911 112.81628,57.1219189 C113.039898,57.6427467 113.336075,58.0627691 113.704808,58.3819861 C114.073541,58.7012031 114.49699,58.9328154 114.975154,59.0768231 C115.453318,59.2208308 115.946945,59.2928346 116.456035,59.2928346 Z M117.869116,54.4397759 L114.843124,54.4397759 C114.933523,53.8589449 115.120268,53.4401226 115.40336,53.1833089 C115.686452,52.9264952 116.011176,52.7980883 116.37753,52.7980883 C117.257732,52.7980883 117.754928,53.3453175 117.869116,54.4397759 L117.869116,54.4397759 Z M129.98736,59.242432 C130.439356,59.242432 130.84972,59.1596275 131.218454,58.9940187 C131.587187,58.8284099 131.905963,58.5751964 132.174781,58.2343782 C132.4436,57.89356 132.650566,57.4699374 132.795681,56.9635104 C132.940795,56.4570834 133.013352,55.8654519 133.013352,55.1886158 C133.013352,54.5117797 132.940795,53.917748 132.795681,53.4065208 C132.650566,52.8952935 132.445979,52.4704709 132.181918,52.1320528 C131.917857,51.7936348 131.60146,51.5380211 131.232727,51.3652119 C130.863994,51.1924027 130.460766,51.1059981 130.023044,51.1059981 C129.447344,51.1059981 128.966801,51.2440055 128.581415,51.5200202 C128.196029,51.7960349 127.877253,52.1140519 127.625087,52.4740711 L127.625087,52.4740711 L127.625087,48.2114438 L125.269952,48.2114438 L125.269952,59.1272258 L127.625087,59.1272258 L127.625087,58.1983763 C127.915316,58.5343942 128.250745,58.792408 128.631373,58.9724176 C129.012001,59.1524272 129.463996,59.242432 129.98736,59.242432 Z M129.188041,57.4639371 C128.874023,57.4639371 128.598068,57.4039339 128.360175,57.2839275 C128.122283,57.1639211 127.877253,56.9815114 127.625087,56.7366983 L127.625087,56.7366983 L127.625087,53.8349436 C127.820159,53.6381331 128.048536,53.4605237 128.310218,53.3021152 C128.5719,53.1437068 128.854992,53.0645025 129.159494,53.0645025 C129.682857,53.0645025 130.064675,53.2565128 130.304946,53.6405333 C130.545218,54.0245537 130.665353,54.5453815 130.665353,55.2030166 C130.665353,55.923055 130.542839,56.4798847 130.29781,56.8735056 C130.05278,57.2671266 129.682857,57.4639371 129.188041,57.4639371 Z M135.618275,62.1369863 C136.008419,62.1369863 136.349795,62.0877837 136.642402,61.9893784 C136.93501,61.8909732 137.190745,61.7457654 137.409606,61.5537552 C137.628467,61.361745 137.818781,61.1325327 137.980548,60.8661185 C138.142315,60.5997043 138.289808,60.2960881 138.423028,59.95527 L138.423028,59.95527 L141.698807,51.2644066 L139.415039,51.2644066 L137.695077,56.3694788 L137.66653,56.3694788 L135.953704,51.2644066 L133.5272,51.2644066 L136.510372,59.1704281 L136.3605,59.5520485 C136.265343,59.8016618 136.13926,59.9780712 135.982251,60.0812767 C135.825242,60.1844822 135.620654,60.2360849 135.368488,60.2360849 C135.016407,60.2360849 134.709526,60.2084835 134.447844,60.1532805 C134.186162,60.0980776 134.000606,60.0560753 133.891176,60.0272738 L133.891176,60.0272738 L133.398738,61.8561713 C133.603326,61.9137744 133.878092,61.9749777 134.223036,62.0397811 C134.56798,62.1045846 135.03306,62.1369863 135.618275,62.1369863 Z M150.748238,59.3360369 C151.499978,59.3360369 152.148235,59.2448321 152.693009,59.0624224 C153.237783,58.8800126 153.685021,58.6363996 154.034723,58.3315834 C154.384425,58.0267671 154.644917,57.6751484 154.8162,57.2767271 C154.987482,56.8783059 155.073124,56.4582835 155.073124,56.01666 C155.073124,55.45503 154.958935,54.987005 154.730558,54.6125851 C154.502182,54.2381651 154.202437,53.9261485 153.831325,53.6765352 C153.460212,53.4269219 153.041522,53.224111 152.575252,53.0681027 C152.108983,52.9120944 151.635577,52.7692868 151.155034,52.6396799 C150.446114,52.4428694 149.898962,52.2388585 149.513576,52.0276472 C149.12819,51.816436 148.935497,51.4948188 148.935497,51.0627958 C148.935497,50.7363784 149.069906,50.4723643 149.338725,50.2707536 C149.607543,50.0691428 149.994119,49.9683374 150.498451,49.9683374 C151.026572,49.9683374 151.530904,50.1087449 152.011447,50.3895599 C152.49199,50.6703749 152.874997,51.0459949 153.160468,51.51642 L153.160468,51.51642 L154.809063,50.2491524 C154.613991,49.9563368 154.385614,49.6743218 154.123932,49.4031073 C153.862251,49.1318928 153.555369,48.8930801 153.203289,48.6866691 C152.851208,48.4802581 152.453927,48.3158493 152.011447,48.1934428 C151.568967,48.0710363 151.069393,48.009833 150.512724,48.009833 C149.927509,48.009833 149.395819,48.0830369 148.917655,48.2294447 C148.439491,48.3758525 148.030316,48.5894639 147.69013,48.8702789 C147.349944,49.1510939 147.084694,49.4931121 146.89438,49.8963336 C146.704066,50.2995551 146.608909,50.7555794 146.608909,51.2644066 C146.608909,51.835637 146.724286,52.3060621 146.955042,52.6756818 C147.185798,53.0453015 147.487921,53.3501178 147.861413,53.5901306 C148.234904,53.8301434 148.655973,54.0245537 149.124622,54.1733617 C149.59327,54.3221696 150.070244,54.4637771 150.555545,54.5981843 C151.269223,54.7949948 151.812807,55.0038059 152.186298,55.2246177 C152.559789,55.4454295 152.746535,55.7622464 152.746535,56.1750684 C152.746535,56.5974909 152.571684,56.9119077 152.221982,57.1183187 C151.87228,57.3247297 151.419095,57.4279352 150.862426,57.4279352 C150.239148,57.4279352 149.671774,57.2683267 149.160306,56.9491097 C148.648837,56.6298927 148.24323,56.1702681 147.943485,55.5702361 L147.943485,55.5702361 L146.145018,56.6502937 C146.349606,57.0439147 146.593446,57.405134 146.876538,57.7339515 C147.15963,58.0627691 147.4903,58.3447841 147.868549,58.5799966 C148.246798,58.8152092 148.675005,59.000019 149.153169,59.1344262 C149.631333,59.2688334 150.163022,59.3360369 150.748238,59.3360369 Z M158.170484,59.1272258 L159.005486,56.693496 L162.688062,56.693496 L163.487381,59.1272258 L165.899611,59.1272258 L162.0743,48.1682415 L159.804805,48.1682415 L155.979494,59.1272258 L158.170484,59.1272258 Z M162.131394,54.9510031 L159.590702,54.9510031 L160.861048,51.235605 L160.889595,51.235605 L162.131394,54.9510031 Z M169.625008,59.1272258 L169.625008,55.2462189 L171.159414,55.2462189 C171.697051,55.2462189 172.23112,55.1994164 172.76162,55.1058114 C173.29212,55.0122064 173.770284,54.835797 174.196112,54.5765832 C174.621939,54.3173693 174.963315,53.9585502 175.220239,53.5001258 C175.477163,53.0417013 175.605625,52.4452695 175.605625,51.7108304 C175.605625,50.990792 175.4843,50.4051607 175.241649,49.9539367 C174.998999,49.5027126 174.673086,49.1462936 174.263911,48.8846797 C173.854736,48.6230657 173.383709,48.4454562 172.85083,48.3518512 C172.317951,48.2582463 171.76604,48.2114438 171.195098,48.2114438 L171.195098,48.2114438 L167.262735,48.2114438 L167.262735,59.1272258 L169.625008,59.1272258 Z M171.252192,53.3885198 L169.625008,53.3885198 L169.625008,50.1771486 L171.252192,50.1771486 C171.999175,50.1771486 172.523728,50.3151559 172.825851,50.5911707 C173.127975,50.8671854 173.279036,51.2596063 173.279036,51.7684334 C173.279036,52.3012618 173.125596,52.7044833 172.818714,52.9780979 C172.511833,53.2517125 171.989659,53.3885198 171.252192,53.3885198 L171.252192,53.3885198 Z"/></g></svg>
